<svg xmlns="http://www.w3.org/2000/svg" xmlns:xlink="http://www.w3.org/1999/xlink" viewBox="0 0 191.33 374.48"><defs><style>.cls-1{fill:none;}.cls-2{isolation:isolate;}.cls-3{fill:#fff;}.cls-14,.cls-4{opacity:0.5;}.cls-5{clip-path:url(#clip-path);}.cls-6{fill:#ffd2bb;}.cls-7{fill:#fee6da;}.cls-8{font-size:9.57px;font-family:Avenir-Heavy, Avenir;font-weight:800;letter-spacing:0.05em;}.cls-9{letter-spacing:-0.04em;}.cls-10{font-size:7.92px;font-family:Avenir-Roman, Avenir;}.cls-11{letter-spacing:-0.02em;}.cls-12{fill:#e9957a;}.cls-13,.cls-14{fill:#feffff;}.cls-15{letter-spacing:-0.04em;}.cls-16{mix-blend-mode:multiply;}.cls-17{fill:#ffdee0;}.cls-18{letter-spacing:-0.02em;}</style><clipPath id="clip-path"><path class="cls-1" d="M175.08,1.25H16.25a15,15,0,0,0-15,15V356.37a15,15,0,0,0,15,15H175.08a15,15,0,0,0,15-15V16.24A15,15,0,0,0,175.08,1.25Z"/></clipPath></defs><g class="cls-2"><g id="Camada_2" data-name="Camada 2"><g id="OBJECTS"><path class="cls-3" d="M175.08,1.25H16.25a15,15,0,0,0-15,15V356.37a15,15,0,0,0,15,15H175.08a15,15,0,0,0,15-15V16.24A15,15,0,0,0,175.08,1.25Z"/><g class="cls-5"><path class="cls-6" d="M14.86,374.48v-67.8A11.68,11.68,0,0,1,26.55,295H164.78a11.68,11.68,0,0,1,11.69,11.68v67.46"/><path class="cls-7" d="M45.64,371.4c-6.53-13-14.9-20.39-30.78-27V306.68a11.68,11.68,0,0,1,8.85-11.32c25.67,22.05,49.75,47.92,60.72,51,29.31,8.15,59.64-7.05,88,8.1,1.32.7,2.66,1.5,4,2.39l-.2,14.48"/><text class="cls-8" transform="translate(45.87 310.44)">R<tspan class="cls-9" x="6.51" y="0">A</tspan><tspan x="13.02" y="0">TE THIS SECTION</tspan></text><text class="cls-10" transform="translate(72.62 320.81)">Lo<tspan class="cls-11" x="8.66" y="0">r</tspan><tspan x="11.31" y="0">em Ipsum</tspan></text><circle class="cls-12" cx="55.93" cy="341.39" r="11.97"/><path d="M51.09,338.59c0,.84-.34,1.53-.77,1.53s-.76-.69-.76-1.53.34-1.53.76-1.53S51.09,337.75,51.09,338.59Z"/><path d="M61.28,338.59c0,.84-.35,1.53-.77,1.53s-.76-.69-.76-1.53.34-1.53.76-1.53S61.28,337.75,61.28,338.59Z"/><path d="M59.68,345.72a5.4,5.4,0,0,0-8.52,0,3.94,3.94,0,0,1,1.59-2.17,4.66,4.66,0,0,1,5.34,0A4,4,0,0,1,59.68,345.72Z"/><circle class="cls-12" cx="95.66" cy="341.39" r="11.97"/><path d="M91.33,339.86c0,.85-.34,1.53-.76,1.53s-.76-.68-.76-1.53.34-1.52.76-1.52S91.33,339,91.33,339.86Z"/><ellipse cx="100.76" cy="339.86" rx="0.76" ry="1.53"/><path d="M91.4,344.45a17.66,17.66,0,0,1,4.26-.47,17.2,17.2,0,0,1,4.27.47,19.59,19.59,0,0,1-8.53,0Z"/><circle class="cls-12" cx="135.4" cy="341.39" r="11.97"/><path d="M131.07,338.59c0,.84-.34,1.53-.76,1.53s-.77-.69-.77-1.53.35-1.53.77-1.53S131.07,337.75,131.07,338.59Z"/><path d="M141.26,338.59c0,.84-.34,1.53-.76,1.53s-.77-.69-.77-1.53.34-1.53.77-1.53S141.26,337.75,141.26,338.59Z"/><path d="M131.14,343.18a5.43,5.43,0,0,0,8.53,0,4,4,0,0,1-1.6,2.17,4.66,4.66,0,0,1-5.34,0A4.08,4.08,0,0,1,131.14,343.18Z"/></g><path class="cls-13" d="M175.08,372.61H16.25A16.27,16.27,0,0,1,0,356.37V16.24A16.26,16.26,0,0,1,16.25,0H175.08a16.26,16.26,0,0,1,16.25,16.24V356.37A16.27,16.27,0,0,1,175.08,372.61ZM16.25,2.5A13.76,13.76,0,0,0,2.5,16.24V356.37a13.76,13.76,0,0,0,13.75,13.74H175.08a13.76,13.76,0,0,0,13.75-13.74V16.24A13.76,13.76,0,0,0,175.08,2.5Z"/><rect class="cls-12" x="29" y="48.12" width="133.32" height="150.21" rx="13.46"/><path class="cls-6" d="M148.86,48.12H144c-25,33.65-46.54,66.51-59.18,72.9C67.26,129.9,48.08,132.26,29,134.74v50.13a13.47,13.47,0,0,0,13.47,13.47H139.1c1-5,1.81-10.42,2.42-16.26,3.27-31.38,7.61-49.81,20.81-65.25V61.59A13.47,13.47,0,0,0,148.86,48.12Z"/><path class="cls-13" d="M40.93,142.06c13.17-17.41,44.12-17,55.19,2.78,4.15,7.43,3.4,19.18-5.86,22.24-11.41,3.77-18-13.7-7.11-15.1-9.68,3.49-.87,17.56,7.82,11.09,7.46-5.56,2.77-15.84-2.4-21C75.49,129.16,54.27,130.3,40.93,142.06Z"/><path class="cls-13" d="M39.57,121c23.59-24.94,56.9-1.17,83.35,2,11.75,1.41,29.17-4,27.23-19-.74-5.69-6.11-11.7-12.32-9.78-5.69,1.74-7.77,10.73-.91,12.73-8.41-1.18-5.62-12.16.29-14.49,6.82-2.7,13.75,2.89,15.64,9.22,4.39,14.65-10.23,25.06-23.12,25.81C99.63,129.19,68.36,97.75,39.57,121Z"/><path class="cls-13" d="M41.91,98.84a59.32,59.32,0,0,1,29.83-8.16c11.28-.07,23.33,5.6,34.45,2.54,8.49-2.34,16.41-14.26,5.77-20-9.17-4.9-16.2,8.42-7.39,10.22-9.82-.14-4.26-14.46,4.58-14,11.92.56,14.35,14.88,7.45,22.44-8.22,9-21.44,6.2-31.94,4C70.17,92.94,55.83,93.5,41.91,98.84Z"/><rect class="cls-3" x="29.84" y="182.59" width="19.55" height="1.88" transform="translate(-143.96 222.96) rotate(-89.94)"/><rect class="cls-3" x="35.8" y="183.49" width="17.77" height="1.88" transform="translate(-139.79 228.92) rotate(-89.94)"/><rect class="cls-3" x="41.77" y="184.38" width="15.99" height="1.88" transform="translate(-135.61 234.9) rotate(-89.94)"/><rect class="cls-3" x="45.51" y="183.06" width="18.66" height="1.88" transform="translate(-129.21 238.64) rotate(-89.94)"/><rect class="cls-3" x="49.7" y="182.18" width="20.44" height="1.88" transform="translate(-123.25 242.84) rotate(-89.94)"/><rect class="cls-3" x="55.67" y="183.07" width="18.66" height="1.88" transform="translate(-119.08 248.81) rotate(-89.94)"/><rect class="cls-3" x="62.52" y="184.85" width="15.11" height="1.88" transform="translate(-115.79 255.67) rotate(-89.94)"/><rect class="cls-3" x="70.04" y="187.3" width="10.22" height="1.88" transform="translate(-113.17 263.19) rotate(-89.94)"/><rect class="cls-3" x="73.34" y="185.53" width="13.77" height="1.88" transform="translate(-106.33 266.5) rotate(-89.94)"/><rect class="cls-3" x="77.53" y="184.65" width="15.55" height="1.88" transform="translate(-100.37 270.71) rotate(-89.94)"/><rect class="cls-3" x="83.06" y="185.1" width="14.66" height="1.88" transform="matrix(0, -1, 1, 0, -95.75, 276.23)"/><rect class="cls-3" x="86.8" y="183.78" width="17.33" height="1.88" transform="translate(-89.34 279.99) rotate(-89.94)"/><rect class="cls-3" x="90.55" y="182.45" width="19.99" height="1.88" transform="translate(-82.95 283.74) rotate(-89.94)"/><rect class="cls-3" x="94.3" y="181.12" width="22.66" height="1.88" transform="translate(-76.54 287.5) rotate(-89.94)"/><rect class="cls-3" x="98.04" y="179.8" width="25.32" height="1.88" transform="translate(-70.15 291.25) rotate(-89.94)"/><rect class="cls-3" x="102.68" y="179.36" width="26.21" height="1.88" transform="translate(-64.63 295.9) rotate(-89.94)"/><rect class="cls-3" x="109.53" y="181.14" width="22.66" height="1.88" transform="translate(-61.34 302.75) rotate(-89.94)"/><rect class="cls-3" x="116.83" y="183.37" width="18.22" height="1.88" transform="matrix(0, -1, 1, 0, -58.51, 310.05)"/><rect class="cls-3" x="123.23" y="184.71" width="15.55" height="1.88" transform="translate(-54.77 316.47) rotate(-89.94)"/><rect class="cls-3" x="129.2" y="185.6" width="13.77" height="1.88" transform="translate(-50.6 322.43) rotate(-89.94)"/><rect class="cls-3" x="133.39" y="184.72" width="15.55" height="1.88" transform="translate(-44.64 326.64) rotate(-89.94)"/><rect class="cls-3" x="139.8" y="186.06" width="12.88" height="1.88" transform="translate(-40.91 333.04) rotate(-89.94)"/><rect class="cls-3" x="144.08" y="185.28" width="14.47" height="1.88" transform="translate(-35.05 337.34) rotate(-89.94)"/><circle class="cls-14" cx="95.66" cy="117.17" r="36.36" transform="translate(-40.11 183.85) rotate(-76.92)"/><rect class="cls-12" x="88.97" y="105.91" width="2.5" height="21.6"/><rect class="cls-12" x="98.99" y="105.91" width="2.5" height="21.6"/><circle class="cls-13" cx="160.53" cy="26.33" r="13.35" transform="translate(108.93 180.61) rotate(-80.82)"/><path class="cls-12" d="M160.53,27.21a4.1,4.1,0,1,1,4.1-4.1A4.1,4.1,0,0,1,160.53,27.21Zm0-7.25a3.16,3.16,0,1,0,3.16,3.15A3.16,3.16,0,0,0,160.53,20Z"/><path class="cls-12" d="M166.21,33.65H154.86a.47.47,0,0,1-.47-.47c0-3.54,3.58-5.71,6.14-5.71s6.15,2.22,6.15,5.71A.47.47,0,0,1,166.21,33.65Zm-10.86-.94h10.36c-.3-2.64-3.17-4.31-5.18-4.31S155.66,30.07,155.35,32.71Z"/><path class="cls-12" d="M30.9,21.2H17.45a.47.47,0,0,1,0-.94H30.9a.47.47,0,1,1,0,.94Z"/><path class="cls-12" d="M30.9,32.41H17.45a.47.47,0,0,1,0-.94H30.9a.47.47,0,0,1,0,.94Z"/><path class="cls-12" d="M30.9,26.8H17.45a.47.47,0,1,1,0-.93H30.9a.47.47,0,1,1,0,.93Z"/><text class="cls-8" transform="translate(35.09 219.8)">MEDI<tspan class="cls-15" x="26.55" y="0">TA</tspan><tspan x="38.15" y="0">TION - BRE</tspan><tspan class="cls-15" x="93.44" y="0">A</tspan><tspan x="99.95" y="0">TH 1</tspan></text><g class="cls-16"><rect class="cls-17" x="139.26" y="224.44" width="2.83" height="43.56" transform="translate(-105.73 386.58) rotate(-89.93)"/><path class="cls-7" d="M162.45,249.54h0l-43.56-.06A1.87,1.87,0,0,1,117,247.6v-2.82a1.88,1.88,0,0,1,1.88-1.88h0l43.56.06a1.88,1.88,0,0,1,1.87,1.88v2.82a1.88,1.88,0,0,1-1.88,1.88Z"/></g><rect class="cls-12" x="72.47" y="201.13" width="2.83" height="90.01" transform="translate(-172.65 318.68) rotate(-89.69)"/><path class="cls-12" d="M118.89,249.67h0l-90-.49A1.88,1.88,0,0,1,27,247.29v-2.82a1.94,1.94,0,0,1,.56-1.33,1.89,1.89,0,0,1,1.32-.54h0l90,.49a1.88,1.88,0,0,1,1.87,1.89l0,2.82a1.88,1.88,0,0,1-.55,1.33A1.93,1.93,0,0,1,118.89,249.67Z"/><path d="M123.13,246.2A4.24,4.24,0,1,1,118.9,242,4.23,4.23,0,0,1,123.13,246.2Z"/><path class="cls-6" d="M110.26,269.77a12,12,0,1,1-12-12A12,12,0,0,1,110.26,269.77Z"/><polygon points="95.59 274.9 95.6 264.1 104 269.51 95.59 274.9"/><polygon points="131.83 266.37 131.82 273.12 137.08 269.75 131.83 266.37"/><path d="M138.41,273.6h0a.47.47,0,0,1-.47-.47v-6.76a.47.47,0,0,1,.47-.46h0a.47.47,0,0,1,.47.47v6.75A.47.47,0,0,1,138.41,273.6Z"/><polygon points="64.69 266.38 64.68 273.13 59.43 269.75 64.69 266.38"/><path d="M58.09,273.59h0a.47.47,0,0,1-.46-.47v-6.75a.47.47,0,0,1,.46-.47h0a.47.47,0,0,1,.46.47v6.76A.47.47,0,0,1,58.09,273.59Z"/><text class="cls-10" transform="translate(70.25 230.83)">by Lo<tspan class="cls-18" x="19.52" y="0">r</tspan><tspan x="22.17" y="0">em Ipsum</tspan></text></g></g></g></svg>