<svg xmlns="http://www.w3.org/2000/svg" viewBox="0 0 191.33 372.61"><defs><style>.cls-1,.cls-6{fill:#fff;}.cls-2{opacity:0.5;}.cls-3{font-size:6.09px;}.cls-3,.cls-6,.cls-8,.cls-9{font-family:Avenir-Roman, Avenir;}.cls-4{letter-spacing:-0.02em;}.cls-5{fill:#e9957a;}.cls-6,.cls-8{font-size:11.7px;}.cls-7{fill:#fee6da;}.cls-9{font-size:11.28px;}.cls-10{letter-spacing:0em;}.cls-11{font-size:17.03px;letter-spacing:0.05em;}.cls-12{fill:#feffff;}.cls-13{fill:#ffd2bb;}.cls-14{fill:#fff0e6;}.cls-15{fill:#f6fafd;}</style></defs><g id="Camada_2" data-name="Camada 2"><g id="OBJECTS"><path class="cls-1" d="M175.08,1.25H16.25a15,15,0,0,0-15,15V356.37a15,15,0,0,0,15,15H175.08a15,15,0,0,0,15-15V16.24A15,15,0,0,0,175.08,1.25Z"/><text class="cls-3" transform="translate(70.85 338.94)">Recover Passwo<tspan class="cls-4" x="43.87" y="0">r</tspan><tspan x="45.91" y="0">d</tspan></text><path class="cls-5" d="M130.45,327.9H60.88a11.26,11.26,0,0,1-11.27-11.26h0a11.27,11.27,0,0,1,11.27-11.27h69.57a11.27,11.27,0,0,1,11.27,11.27h0A11.26,11.26,0,0,1,130.45,327.9Z"/><text class="cls-6" transform="translate(74 320.86)">Register</text><path class="cls-7" d="M130.45,299.51H60.88a11.26,11.26,0,0,1-11.27-11.26h0A11.26,11.26,0,0,1,60.88,277h69.57a11.26,11.26,0,0,1,11.27,11.27h0A11.26,11.26,0,0,1,130.45,299.51Z"/><text class="cls-8" transform="translate(81.04 291.14)">Login</text><text class="cls-9" transform="translate(45.8 44.26)">Find your calm wi<tspan class="cls-10" x="88.61" y="0">t</tspan><tspan x="92.6" y="0">h</tspan><tspan class="cls-11"><tspan x="5.73" y="18.34">CALMARA</tspan></tspan></text><path class="cls-12" d="M175.08,372.61H16.25A16.27,16.27,0,0,1,0,356.37V16.24A16.26,16.26,0,0,1,16.25,0H175.08a16.26,16.26,0,0,1,16.25,16.24V356.37A16.27,16.27,0,0,1,175.08,372.61ZM16.25,2.5A13.76,13.76,0,0,0,2.5,16.24V356.37a13.76,13.76,0,0,0,13.75,13.74H175.08a13.76,13.76,0,0,0,13.75-13.74V16.24A13.76,13.76,0,0,0,175.08,2.5Z"/><circle class="cls-13" cx="95.66" cy="171.69" r="55.2"/><circle class="cls-7" cx="95.66" cy="171.69" r="46.92"/><circle class="cls-14" cx="95.66" cy="171.69" r="38.64"/><circle class="cls-15" cx="95.66" cy="171.69" r="30.36"/></g></g></svg>