<svg xmlns="http://www.w3.org/2000/svg" xmlns:xlink="http://www.w3.org/1999/xlink" viewBox="0 0 196.32 374.46"><defs><style>.cls-1{fill:none;}.cls-2{isolation:isolate;}.cls-3{fill:#feffff;}.cls-4{clip-path:url(#clip-path);}.cls-20,.cls-5{fill:#fee6da;}.cls-23,.cls-6{fill:#fff;}.cls-7{clip-path:url(#clip-path-2);}.cls-21,.cls-8{fill:#e9957a;}.cls-9{fill:#da4d58;}.cls-10{fill:#ffae8e;}.cls-11{fill:#ff7e53;}.cls-12,.cls-17{font-size:17.03px;font-family:Avenir-Heavy, Avenir;font-weight:800;}.cls-12,.cls-19{letter-spacing:0.05em;}.cls-13,.cls-21,.cls-23{font-size:7.92px;font-family:Avenir-Roman, Avenir;}.cls-14{letter-spacing:-0.02em;}.cls-15{fill:#ffd2bb;}.cls-16{clip-path:url(#clip-path-3);}.cls-17{letter-spacing:0.05em;}.cls-18{letter-spacing:-0.04em;}.cls-20{mix-blend-mode:multiply;}.cls-22{letter-spacing:0em;}.cls-24{letter-spacing:0em;}.cls-25{letter-spacing:0em;}</style><clipPath id="clip-path" transform="translate(4.99)"><path class="cls-1" d="M175.08,1.25H16.25a15,15,0,0,0-15,15V356.37a15,15,0,0,0,15,15H175.08a15,15,0,0,0,15-15V16.24A15,15,0,0,0,175.08,1.25Z"/></clipPath><clipPath id="clip-path-2" transform="translate(4.99)"><rect class="cls-1" x="14.11" y="168.12" width="161.61" height="111.49" rx="11.68"/></clipPath><clipPath id="clip-path-3" transform="translate(4.99)"><path class="cls-1" d="M175.71,371.81V283.68A11.68,11.68,0,0,0,164,272H25.79a11.68,11.68,0,0,0-11.68,11.68v88.13"/></clipPath></defs><g class="cls-2"><g id="Camada_2" data-name="Camada 2"><g id="OBJECTS"><path class="cls-3" d="M175.08,1.25H16.25a15,15,0,0,0-15,15V356.37a15,15,0,0,0,15,15H175.08a15,15,0,0,0,15-15V16.24A15,15,0,0,0,175.08,1.25Z" transform="translate(4.99)"/><g class="cls-4"><rect class="cls-5" x="19.1" y="168.12" width="161.61" height="111.49" rx="11.68"/><path class="cls-6" d="M18.1,227.55q-2,1.06-4,2.4v38a11.68,11.68,0,0,0,11.68,11.69H131.86a116,116,0,0,0,4.19-11.55c9.06-29.22,16.07-40.73,39.66-50.53V179.81a11.68,11.68,0,0,0-8.85-11.33c-25.67,22.05-49.75,47.93-60.72,51C76.83,227.6,46.5,212.41,18.1,227.55Z" transform="translate(4.99)"/><g class="cls-7"><path d="M81.18,214.17c-2.37-10.08-6.81-26.44-15.85-35-7.39-7-21.25-5.88-27.47,3C33.33,188.58,25.56,211,25.56,216,25.56,225.76,83.68,224.82,81.18,214.17Z" transform="translate(4.99)"/><path class="cls-8" d="M76.29,228c-7-5.21-39.27-4.79-46.51.21-6.27,4.33-8.46,71.28-8.46,71.28,22,3.39,38.9,3.39,60.89,0C82.21,299.51,81.34,231.77,76.29,228Z" transform="translate(4.99)"/><path class="cls-9" d="M40.92,226.35a10.39,10.39,0,0,0,4.26,5.91,13.06,13.06,0,0,0,6.89,2.21,13.53,13.53,0,0,0,7.07-1.62,10.94,10.94,0,0,0,4.9-5.42,9.35,9.35,0,0,1-1.66,3.45,11.32,11.32,0,0,1-2.88,2.59A12.9,12.9,0,0,1,52,235.4a12.58,12.58,0,0,1-7.27-2.56A10.86,10.86,0,0,1,42.15,230,8.92,8.92,0,0,1,40.92,226.35Z" transform="translate(4.99)"/><path class="cls-10" d="M31.54,229c6.63,6.3-18.07,68.58-35.64,60.79-6.23-2.76,22.19-49.41,22.19-49.41S27.37,225.08,31.54,229Z" transform="translate(4.99)"/><path class="cls-8" d="M35.79,226.53c-16.09-.88-32.41,34.53-32.14,34.79,6.47,6.12,18.61,10.19,18.61,10.19S45.41,227.06,35.79,226.53Z" transform="translate(4.99)"/><path class="cls-10" d="M72,229c-6.62,6.3,18.08,68.58,35.64,60.79,6.23-2.76-22.19-49.41-22.19-49.41S76.16,225.08,72,229Z" transform="translate(4.99)"/><path class="cls-8" d="M68.53,226c16.09-.88,30.12,34.2,29.84,34.46-6.46,6.12-19.45,10.19-19.45,10.19S58.91,226.54,68.53,226Z" transform="translate(4.99)"/><path class="cls-11" d="M65.66,199.24c3.23-.21,6.11,1.86,6.39,4.59s-2.13,5.16-5.36,5.37Z" transform="translate(4.99)"/><path class="cls-11" d="M40,200.32c-3.23-.22-6.11,1.85-6.39,4.59s2.12,5.15,5.36,5.36Z" transform="translate(4.99)"/><path class="cls-10" d="M44.35,208.68s1.9,18.4,3.08,20.67c1.4,2.68,4.33,3.06,6.52,2.93a6.19,6.19,0,0,0,5.84-4.51c.38-1.18,1.68-19.09,1.68-19.09Z" transform="translate(4.99)"/><path class="cls-11" d="M60.49,221.15c.48-5.52,1-12.47,1-12.47H44.35s.69,6.74,1.51,12.56c1.94,4.32,4.81,5.69,7.23,5.69S58.56,225.34,60.49,221.15Z" transform="translate(4.99)"/><path class="cls-10" d="M68.53,207c0,11.8-8.85,15.66-15.62,15.66-6.42,0-14.78-3.22-15.61-15.66-.8-11.78,0-28,15.61-28S68.53,195.18,68.53,207Z" transform="translate(4.99)"/><path d="M39.93,182.8c-3,2.32-9.2,21-5.22,22.65,7,2.93,17.72-18.89,17.72-18.89s17.68,23.65,18.75,15.05C72.55,190.65,62.81,165.05,39.93,182.8Z" transform="translate(4.99)"/><path class="cls-11" d="M53.06,205.61a13.67,13.67,0,0,1,1.16,2.53,20.43,20.43,0,0,1,.74,2.65v.06a.37.37,0,0,1-.3.45h0a5,5,0,0,1-1.39,0A2.84,2.84,0,0,1,52,210.9a5.93,5.93,0,0,0,1.28-.11c.41-.08.83-.18,1.2-.29l-.3.52a22.24,22.24,0,0,1-.76-2.65A14.57,14.57,0,0,1,53.06,205.61Z" transform="translate(4.99)"/><path class="cls-11" d="M48.53,213.36a23.86,23.86,0,0,0,5.83,1.35,4.74,4.74,0,0,1-3.13.24A4.81,4.81,0,0,1,48.53,213.36Z" transform="translate(4.99)"/><path class="cls-11" d="M55.41,205.16c.8,0,1.4.11,2,.13s1.25,0,2,.07a2.49,2.49,0,0,1-2.09.87A2.51,2.51,0,0,1,55.41,205.16Z" transform="translate(4.99)"/><path class="cls-11" d="M46,205.16c.8,0,1.4.11,2,.13s1.25,0,2,.07a2.49,2.49,0,0,1-2.09.87A2.51,2.51,0,0,1,46,205.16Z" transform="translate(4.99)"/><path d="M47.27,200.79a3.77,3.77,0,0,0-2.78,2.11c-.12.37.92,0,1.14,0,.73-.12,1.46-.2,2.2-.26s1.48-.07,2.22-.06c.49,0,1,.22.72-.3C50.24,201.09,48.4,200.62,47.27,200.79Z" transform="translate(4.99)"/><path d="M58.35,200.79c-1.13-.17-3,.3-3.5,1.48-.23.52.23.31.72.3q1.11,0,2.22.06c.74.06,1.47.14,2.2.26.22,0,1.26.38,1.14,0A3.77,3.77,0,0,0,58.35,200.79Z" transform="translate(4.99)"/><path class="cls-9" d="M82.21,299.51c-.26-4.27-.45-8.53-.63-12.8l-.53-12.79-1-25.59c.54,4.24.91,8.5,1.22,12.76s.49,8.53.7,12.79.27,8.54.3,12.81S82.34,295.24,82.21,299.51Z" transform="translate(4.99)"/><path class="cls-9" d="M24.75,249l-.88,12.62-.82,12.63-.83,12.62-.42,6.32-.48,6.31c-.05-4.22.05-8.44.18-12.66s.38-8.44.61-12.65.62-8.42,1-12.63S24.08,253.18,24.75,249Z" transform="translate(4.99)"/></g><path class="cls-3" d="M170.16,262.89a12,12,0,1,1-12-12A12,12,0,0,1,170.16,262.89Z" transform="translate(4.99)"/><polygon points="160.47 268.02 160.48 257.22 168.88 262.63 160.47 268.02"/><polygon class="cls-8" points="166.19 185.66 162.97 183.52 159.75 185.66 159.75 177.41 166.19 177.41 166.19 185.66"/><text class="cls-12" transform="translate(118.26 227.32)">MIND</text><text class="cls-13" transform="translate(120.08 238.31)">Lo<tspan class="cls-14" x="8.66" y="0">r</tspan><tspan x="11.31" y="0">em ipsum</tspan></text><path class="cls-15" d="M14.11,371.3V306.68A11.68,11.68,0,0,1,25.79,295H164a11.68,11.68,0,0,1,11.68,11.68V371.3" transform="translate(4.99)"/><path class="cls-5" d="M44.86,371.35c-6.53-13-14.9-20.35-30.75-26.93V306.68A11.68,11.68,0,0,1,23,295.36c25.67,22.05,49.75,47.92,60.71,51,29.32,8.15,59.65-7.05,88,8.1a45.83,45.83,0,0,1,4,2.39V371.3" transform="translate(4.99)"/><g class="cls-16"><path d="M116.76,358.93c-.62-13.12-2.79-38.1,6.25-50.62,7.39-10.25,26.28-9.21,32.5,3.75,4.53,9.44,6.88,38.12,3.13,49.37C154.13,375,117.51,374.74,116.76,358.93Z" transform="translate(4.99)"/><path class="cls-6" d="M165.47,372.61c-.85-9.39-2-16.57-3.56-17.72-7-5.21-39.27-4.79-46.51.21-2,1.4-3.62,9.29-4.85,19.36" transform="translate(4.99)"/><path class="cls-5" d="M126.55,353.22a10.31,10.31,0,0,0,4.25,5.91,13,13,0,0,0,6.9,2.21,13.38,13.38,0,0,0,7.06-1.62,10.92,10.92,0,0,0,4.9-5.41,9.28,9.28,0,0,1-1.65,3.44,11.66,11.66,0,0,1-2.88,2.59,13,13,0,0,1-7.47,1.94,12.66,12.66,0,0,1-7.28-2.57,10.93,10.93,0,0,1-2.6-2.87A8.67,8.67,0,0,1,126.55,353.22Z" transform="translate(4.99)"/><path class="cls-6" d="M120.12,372.36c3.52-9.42,5.42-17.73,1.29-18-8-.43-16,8-22,16.71" transform="translate(4.99)"/><path class="cls-6" d="M155.4,374.41c-3.61-10.76-5.91-21.27-1.25-21.52,8.48-.47,16.38,9.05,21.92,18.19" transform="translate(4.99)"/><path class="cls-11" d="M125.41,325.94c-3.23-.21-6.11,1.85-6.39,4.58s2.12,5.13,5.36,5.35Z" transform="translate(4.99)"/><path class="cls-11" d="M151.1,327c3.24-.21,6.11,1.85,6.4,4.58s-2.13,5.13-5.36,5.35Z" transform="translate(4.99)"/><path class="cls-10" d="M146.72,335.34s-1.9,18.35-3.08,20.6c-1.4,2.67-4.33,3.06-6.52,2.92a6.18,6.18,0,0,1-5.84-4.49c-.38-1.17-1.69-19-1.69-19Z" transform="translate(4.99)"/><path class="cls-11" d="M130.57,347.78c-.47-5.51-1-12.44-1-12.44h17.13s-.7,6.72-1.51,12.53c-2,4.3-4.81,5.67-7.23,5.67S132.51,352,130.57,347.78Z" transform="translate(4.99)"/><path class="cls-10" d="M122.54,333.65c0,11.76,8.85,15.61,15.62,15.61,6.42,0,14.77-3.21,15.61-15.61.79-11.73,0-27.92-15.61-27.92S122.54,321.89,122.54,333.65Z" transform="translate(4.99)"/><path d="M151.14,309.56c3,2.31,11.87,21.25,5.21,22.57-7.47,1.49-8.34-20.7-8.34-20.7H129.26s-3.54,25.21-9.37,16.88C115.51,322.06,128.26,291.87,151.14,309.56Z" transform="translate(4.99)"/><path class="cls-11" d="M138,332.29a9.38,9.38,0,0,1-.36,2.15,14.26,14.26,0,0,1-.72,2l-.33-.59c.38.09.81.17,1.21.25a12.49,12.49,0,0,0,1.29.19,3.33,3.33,0,0,1-1.3.43,5.16,5.16,0,0,1-1.36,0,.41.41,0,0,1-.37-.46s0-.06,0-.08l0-.05a17.11,17.11,0,0,1,.78-2A10,10,0,0,1,138,332.29Z" transform="translate(4.99)"/><path class="cls-11" d="M135.65,331.84a2.63,2.63,0,0,1-4.08.2c.79,0,1.4,0,2-.07S134.86,331.87,135.65,331.84Z" transform="translate(4.99)"/><path class="cls-11" d="M145.12,331.84a2.51,2.51,0,0,1-2,1.07A2.49,2.49,0,0,1,141,332c.8,0,1.4,0,2-.07S144.32,331.87,145.12,331.84Z" transform="translate(4.99)"/><path d="M143.8,327.49a3.77,3.77,0,0,1,2.78,2.1c.12.37-.92,0-1.14,0-.73-.12-1.47-.2-2.21-.26s-1.47-.07-2.21-.06c-.49,0-1,.22-.72-.3C140.83,327.79,142.67,327.31,143.8,327.49Z" transform="translate(4.99)"/><path d="M132.72,327.49c1.13-.18,3,.3,3.5,1.47.23.52-.23.31-.72.3q-1.11,0-2.22.06c-.74.06-1.47.14-2.2.26-.22,0-1.26.38-1.14,0A3.76,3.76,0,0,1,132.72,327.49Z" transform="translate(4.99)"/><path class="cls-11" d="M140,338.71a2.63,2.63,0,0,1-4.08.2c.79,0,1.4,0,2-.06S139.24,338.75,140,338.71Z" transform="translate(4.99)"/><path d="M135,319.87c-.26,1.86-.56,3.48-.83,5.25A59.1,59.1,0,0,1,123,323.31l2.89-15,25.24,1.25s1.79,10.9,0,15a96,96,0,0,1-15.2.67C135.64,323.44,135.29,321.66,135,319.87Z" transform="translate(4.99)"/></g><polygon class="cls-8" points="166.19 312.54 162.97 310.39 159.75 312.54 159.75 304.28 166.19 304.28 166.19 312.54"/><text class="cls-17" transform="translate(31.24 354.19)">BRE<tspan class="cls-18" x="34.72" y="0">A</tspan><tspan class="cls-19" x="46.29" y="0">TH</tspan></text><text class="cls-13" transform="translate(32.58 365.18)">Lo<tspan class="cls-14" x="8.66" y="0">r</tspan><tspan x="11.31" y="0">em ipsum</tspan></text></g><circle class="cls-6" cx="160.53" cy="26.33" r="13.35" transform="translate(51.45 142.31) rotate(-54.79)"/><path class="cls-8" d="M160.53,27.21a4.1,4.1,0,1,1,4.1-4.1A4.1,4.1,0,0,1,160.53,27.21Zm0-7.25a3.16,3.16,0,1,0,3.16,3.15A3.15,3.15,0,0,0,160.53,20Z" transform="translate(4.99)"/><path class="cls-8" d="M166.21,33.65H154.86a.47.47,0,0,1-.47-.47c0-3.54,3.58-5.71,6.14-5.71s6.15,2.22,6.15,5.71A.47.47,0,0,1,166.21,33.65Zm-10.86-.94h10.36c-.3-2.64-3.17-4.31-5.18-4.31S155.66,30.07,155.35,32.71Z" transform="translate(4.99)"/><path class="cls-8" d="M30.9,21.2H17.45a.47.47,0,0,1,0-.94H30.9a.47.47,0,1,1,0,.94Z" transform="translate(4.99)"/><path class="cls-8" d="M30.9,32.41H17.45a.47.47,0,0,1,0-.94H30.9a.47.47,0,0,1,0,.94Z" transform="translate(4.99)"/><path class="cls-8" d="M30.9,26.8H17.45a.47.47,0,1,1,0-.93H30.9a.47.47,0,1,1,0,.93Z" transform="translate(4.99)"/><text class="cls-12" transform="translate(47.74 62.6)">HI, SOPHIA!</text><path class="cls-20" d="M163.89,99.3H27.18A12.26,12.26,0,0,1,14.92,87h0A12.26,12.26,0,0,1,27.18,74.78H163.89A12.26,12.26,0,0,1,176.15,87h0A12.26,12.26,0,0,1,163.89,99.3Z" transform="translate(4.99)"/><circle class="cls-8" cx="163.39" cy="87.06" r="13.02" transform="translate(25.03 204.23) rotate(-67.31)"/><text class="cls-21" transform="translate(29.92 89.04)">Sea<tspan class="cls-14" x="12.92" y="0">r</tspan><tspan x="15.56" y="0">ch a Me</tspan><tspan class="cls-22" x="43.88" y="0">d</tspan><tspan x="48.73" y="0">ida</tspan><tspan class="cls-22" x="59.58" y="0">t</tspan><tspan x="62.38" y="0">ion</tspan></text><path class="cls-5" d="M164,90A3.94,3.94,0,0,1,160,86.1a3.88,3.88,0,0,1,1.16-2.78,4,4,0,0,1,5.57,0A3.94,3.94,0,0,1,164,90Zm0-6.94a3,3,0,0,0-2.12,5.13A3,3,0,0,0,166.08,84,3,3,0,0,0,164,83.1Z" transform="translate(4.99)"/><path class="cls-5" d="M158.61,91.92a.47.47,0,0,1-.33-.14.48.48,0,0,1,0-.67l2.91-2.91a.47.47,0,0,1,.66,0,.47.47,0,0,1,0,.67l-2.91,2.91A.47.47,0,0,1,158.61,91.92Z" transform="translate(4.99)"/><rect class="cls-8" x="19.87" y="111.5" width="42.6" height="19.63" rx="9.81"/><text class="cls-23" transform="translate(29.73 123.23)">B<tspan class="cls-14" x="4.99" y="0">r</tspan><tspan x="7.63" y="0">ea</tspan><tspan class="cls-24" x="16.15" y="0">t</tspan><tspan class="cls-25" x="18.94" y="0">h</tspan></text><rect class="cls-5" x="114.96" y="111.5" width="66.47" height="19.63" rx="9.81"/><text class="cls-21" transform="translate(126.36 123.23)">Sleep Be<tspan class="cls-22" x="31.54" y="0">t</tspan><tspan x="34.34" y="0">ter</tspan></text><rect class="cls-5" x="19.87" y="136.91" width="45.78" height="19.63" rx="9.81"/><text class="cls-21" transform="translate(27.98 148.63)">Anxiety</text><rect class="cls-5" x="72.04" y="136.91" width="64.86" height="19.63" rx="9.81"/><text class="cls-21" transform="translate(83.36 148.63)">Min<tspan class="cls-22" x="13.49" y="0">d</tspan><tspan x="18.33" y="0">fu</tspan><tspan class="cls-22" x="25.23" y="0">l</tspan><tspan x="27.14" y="0">lness</tspan></text><rect class="cls-8" x="70.45" y="111.5" width="38.15" height="19.63" rx="9.81"/><text class="cls-23" transform="translate(80.36 123.23)">Mind</text><rect class="cls-5" x="143.28" y="136.91" width="38.15" height="19.63" rx="9.81"/><text class="cls-21" transform="translate(153.19 148.63)">Calm</text><path class="cls-3" d="M175.08,372.61H16.25a16.14,16.14,0,0,1-11.48-4.76,1.25,1.25,0,0,1,1.76-1.77,13.67,13.67,0,0,0,9.72,4H175.08a13.76,13.76,0,0,0,13.75-13.74V16.24A13.76,13.76,0,0,0,175.08,2.5H16.25A13.76,13.76,0,0,0,2.5,16.24V356.37a1.25,1.25,0,0,1-2.5,0V16.24A16.26,16.26,0,0,1,16.25,0H175.08a16.26,16.26,0,0,1,16.25,16.24V356.37A16.27,16.27,0,0,1,175.08,372.61Z" transform="translate(4.99)"/></g></g></g></svg>